<svg width="13" height="13" viewBox="0 0 13 13" fill="none" xmlns="http://www.w3.org/2000/svg">
<path d="M11.6369 5.21281C11.4307 4.99734 11.2174 4.77531 11.137 4.58008C11.0627 4.40125 11.0583 4.10484 11.0539 3.81773C11.0457 3.28398 11.037 2.67914 10.6164 2.25859C10.1959 1.83805 9.59102 1.8293 9.05727 1.82109C8.77016 1.81672 8.47375 1.81234 8.29492 1.73797C8.10023 1.65758 7.87766 1.4443 7.66219 1.23812C7.28484 0.875547 6.85609 0.464844 6.28516 0.464844C5.71422 0.464844 5.28602 0.875547 4.90812 1.23812C4.69266 1.4443 4.47062 1.65758 4.27539 1.73797C4.09766 1.81234 3.80016 1.81672 3.51305 1.82109C2.9793 1.8293 2.37445 1.83805 1.95391 2.25859C1.53336 2.67914 1.52734 3.28398 1.51641 3.81773C1.51203 4.10484 1.50766 4.40125 1.43328 4.58008C1.35289 4.77477 1.13961 4.99734 0.933437 5.21281C0.570859 5.59016 0.160156 6.01891 0.160156 6.58984C0.160156 7.16078 0.570859 7.58898 0.933437 7.96687C1.13961 8.18234 1.35289 8.40438 1.43328 8.59961C1.50766 8.77844 1.51203 9.07484 1.51641 9.36195C1.52461 9.8957 1.53336 10.5005 1.95391 10.9211C2.37445 11.3416 2.9793 11.3504 3.51305 11.3586C3.80016 11.363 4.09656 11.3673 4.27539 11.4417C4.47008 11.5221 4.69266 11.7354 4.90812 11.9416C5.28547 12.3041 5.71422 12.7148 6.28516 12.7148C6.85609 12.7148 7.2843 12.3041 7.66219 11.9416C7.87766 11.7354 8.09969 11.5221 8.29492 11.4417C8.47375 11.3673 8.77016 11.363 9.05727 11.3586C9.59102 11.3504 10.1959 11.3416 10.6164 10.9211C11.037 10.5005 11.0457 9.8957 11.0539 9.36195C11.0583 9.07484 11.0627 8.77844 11.137 8.59961C11.2174 8.40492 11.4307 8.18234 11.6369 7.96687C11.9995 7.58953 12.4102 7.16078 12.4102 6.58984C12.4102 6.01891 11.9995 5.5907 11.6369 5.21281ZM11.0052 7.36148C10.7433 7.63492 10.472 7.91766 10.3282 8.26492C10.1904 8.59852 10.1844 8.97969 10.1789 9.34883C10.1734 9.73164 10.1674 10.1325 9.99734 10.302C9.82727 10.4716 9.42914 10.4781 9.04414 10.4836C8.675 10.4891 8.29383 10.4951 7.96023 10.6329C7.61297 10.7767 7.33023 11.048 7.0568 11.3099C6.78336 11.5719 6.50391 11.8398 6.28516 11.8398C6.06641 11.8398 5.78477 11.5708 5.51352 11.3099C5.24227 11.0491 4.95734 10.7767 4.61008 10.6329C4.27648 10.4951 3.89531 10.4891 3.52617 10.4836C3.14336 10.4781 2.7425 10.4721 2.57297 10.302C2.40344 10.132 2.39687 9.73383 2.39141 9.34883C2.38594 8.97969 2.37992 8.59852 2.24211 8.26492C2.09828 7.91766 1.82703 7.63492 1.56508 7.36148C1.30312 7.08805 1.03516 6.80859 1.03516 6.58984C1.03516 6.37109 1.30422 6.08945 1.56508 5.8182C1.82594 5.54695 2.09828 5.26203 2.24211 4.91477C2.37992 4.58117 2.38594 4.2 2.39141 3.83086C2.39687 3.44805 2.40289 3.04719 2.57297 2.87766C2.74305 2.70812 3.14117 2.70156 3.52617 2.69609C3.89531 2.69062 4.27648 2.68461 4.61008 2.5468C4.95734 2.40297 5.24008 2.13172 5.51352 1.86977C5.78695 1.60781 6.06641 1.33984 6.28516 1.33984C6.50391 1.33984 6.78555 1.60891 7.0568 1.86977C7.32805 2.13062 7.61297 2.40297 7.96023 2.5468C8.29383 2.68461 8.675 2.69062 9.04414 2.69609C9.42695 2.70156 9.82781 2.70758 9.99734 2.87766C10.1669 3.04773 10.1734 3.44586 10.1789 3.83086C10.1844 4.2 10.1904 4.58117 10.3282 4.91477C10.472 5.26203 10.7433 5.54477 11.0052 5.8182C11.2672 6.09164 11.5352 6.37109 11.5352 6.58984C11.5352 6.80859 11.2661 7.09023 11.0052 7.36148ZM8.78219 4.96781C8.82286 5.00844 8.85513 5.0567 8.87715 5.10981C8.89917 5.16292 8.9105 5.21985 8.9105 5.27734C8.9105 5.33484 8.89917 5.39177 8.87715 5.44488C8.85513 5.49799 8.82286 5.54624 8.78219 5.58687L5.71969 8.64937C5.67906 8.69005 5.6308 8.72232 5.57769 8.74434C5.52458 8.76636 5.46765 8.77769 5.41016 8.77769C5.35266 8.77769 5.29573 8.76636 5.24262 8.74434C5.18951 8.72232 5.14126 8.69005 5.10063 8.64937L3.78812 7.33687C3.70603 7.25478 3.65991 7.14344 3.65991 7.02734C3.65991 6.91125 3.70603 6.79991 3.78812 6.71781C3.87022 6.63572 3.98156 6.5896 4.09766 6.5896C4.21375 6.5896 4.32509 6.63572 4.40719 6.71781L5.41016 7.72133L8.16313 4.96781C8.20376 4.92713 8.25201 4.89487 8.30512 4.87285C8.35823 4.85083 8.41516 4.8395 8.47266 4.8395C8.53015 4.8395 8.58708 4.85083 8.64019 4.87285C8.6933 4.89487 8.74156 4.92713 8.78219 4.96781Z" fill="url(#paint0_linear_17025_275)" fill-opacity="0.6"/>
<defs>
<linearGradient id="paint0_linear_17025_275" x1="6.28516" y1="0.464844" x2="6.28516" y2="12.7148" gradientUnits="userSpaceOnUse">
<stop stop-color="#032E15"/>
<stop offset="1" stop-color="#016630"/>
</linearGradient>
</defs>
</svg>
