<svg width="62" height="24" viewBox="0 0 62 24" fill="none" xmlns="http://www.w3.org/2000/svg">
<path d="M14.7468 8.2152C14.6261 7.76776 14.4485 7.37358 14.2141 7.03267C13.9798 6.68466 13.6921 6.38991 13.3512 6.14844C13.0103 5.90696 12.6197 5.72585 12.1793 5.60511C11.739 5.47727 11.256 5.41335 10.7305 5.41335C9.67223 5.41335 8.75604 5.66903 7.98189 6.1804C7.21484 6.69176 6.6218 7.4375 6.20277 8.41761C5.78374 9.39062 5.57422 10.5732 5.57422 11.9652C5.57422 13.3643 5.77663 14.5575 6.18146 15.5447C6.58629 16.532 7.17223 17.2848 7.93928 17.8033C8.70632 18.3217 9.63672 18.581 10.7305 18.581C11.6964 18.581 12.5131 18.4247 13.1808 18.1122C13.8555 17.7926 14.3668 17.3416 14.7148 16.7592C15.0629 16.1768 15.2369 15.4915 15.2369 14.7031L16.217 14.8203H10.9116V10.9744H20.3185V13.8615C20.3185 15.8146 19.9031 17.4872 19.0721 18.8793C18.2482 20.2713 17.1119 21.3402 15.663 22.0859C14.2212 22.8317 12.5629 23.2045 10.6879 23.2045C8.60689 23.2045 6.77805 22.7536 5.20135 21.8516C3.62464 20.9496 2.39595 19.6641 1.51527 17.995C0.634588 16.3189 0.194247 14.3303 0.194247 12.0291C0.194247 10.2393 0.460582 8.65199 0.993253 7.26705C1.52592 5.875 2.26811 4.69602 3.21982 3.73011C4.17862 2.7642 5.28658 2.03267 6.54368 1.53551C7.80788 1.03835 9.16797 0.789772 10.6239 0.789772C11.8881 0.789772 13.0636 0.97088 14.1502 1.3331C15.244 1.69531 16.2099 2.20668 17.0479 2.86719C17.8931 3.5277 18.5785 4.3125 19.104 5.22159C19.6296 6.13068 19.9563 7.12855 20.0842 8.2152H14.7468ZM21.7461 5.37074V1.08807H40.1871V5.37074H33.5714V22.9062H28.3725V5.37074H21.7461ZM56.0847 8.2152C55.964 7.76776 55.7864 7.37358 55.552 7.03267C55.3176 6.68466 55.03 6.38991 54.6891 6.14844C54.3482 5.90696 53.9576 5.72585 53.5172 5.60511C53.0769 5.47727 52.5939 5.41335 52.0684 5.41335C51.0101 5.41335 50.0939 5.66903 49.3198 6.1804C48.5527 6.69176 47.9597 7.4375 47.5407 8.41761C47.1216 9.39062 46.9121 10.5732 46.9121 11.9652C46.9121 13.3643 47.1145 14.5575 47.5194 15.5447C47.9242 16.532 48.5101 17.2848 49.2772 17.8033C50.0442 18.3217 50.9746 18.581 52.0684 18.581C53.0343 18.581 53.851 18.4247 54.5186 18.1122C55.1934 17.7926 55.7047 17.3416 56.0527 16.7592C56.4007 16.1768 56.5748 15.4915 56.5748 14.7031L57.5549 14.8203H52.2495V10.9744H61.6564V13.8615C61.6564 15.8146 61.2409 17.4872 60.41 18.8793C59.5861 20.2713 58.4498 21.3402 57.0009 22.0859C55.5591 22.8317 53.9007 23.2045 52.0257 23.2045C49.9448 23.2045 48.1159 22.7536 46.5392 21.8516C44.9625 20.9496 43.7338 19.6641 42.8532 17.995C41.9725 16.3189 41.5321 14.3303 41.5321 12.0291C41.5321 10.2393 41.7985 8.65199 42.3311 7.26705C42.8638 5.875 43.606 4.69602 44.5577 3.73011C45.5165 2.7642 46.6245 2.03267 47.8816 1.53551C49.1458 1.03835 50.5059 0.789772 51.9618 0.789772C53.226 0.789772 54.4015 0.97088 55.4881 1.3331C56.5819 1.69531 57.5478 2.20668 58.3858 2.86719C59.231 3.5277 59.9164 4.3125 60.4419 5.22159C60.9675 6.13068 61.2942 7.12855 61.4221 8.2152H56.0847Z" fill="url(#paint0_linear_17005_93)" fill-opacity="0.6"/>
<defs>
<linearGradient id="paint0_linear_17005_93" x1="61.2773" y1="-10.0938" x2="61.2773" y2="36.9062" gradientUnits="userSpaceOnUse">
<stop stop-color="#032E15"/>
<stop offset="1" stop-color="#016630"/>
</linearGradient>
</defs>
</svg>
