<svg width="25" height="25" viewBox="0 0 25 25" fill="none" xmlns="http://www.w3.org/2000/svg">
<path opacity="0.2" d="M16.5547 9.5C16.5547 10.39 16.2908 11.26 15.7963 12.0001C15.3018 12.7401 14.599 13.3169 13.7768 13.6575C12.9545 13.9981 12.0497 14.0872 11.1768 13.9135C10.3039 13.7399 9.50205 13.3113 8.87271 12.682C8.24337 12.0526 7.81479 11.2508 7.64116 10.3779C7.46752 9.50499 7.55664 8.60019 7.89723 7.77792C8.23783 6.95566 8.8146 6.25285 9.55462 5.75839C10.2946 5.26392 11.1647 5 12.0547 5C13.2482 5 14.3928 5.47411 15.2367 6.31802C16.0806 7.16193 16.5547 8.30653 16.5547 9.5Z" fill="white" fill-opacity="0.8"/>
<path d="M20.3047 9.50002C20.3055 8.10971 19.955 6.74173 19.2856 5.52316C18.6162 4.30459 17.6498 3.27495 16.476 2.52986C15.3022 1.78478 13.9591 1.34842 12.5715 1.26132C11.1839 1.17423 9.79685 1.43921 8.53909 2.03167C7.28134 2.62413 6.1937 3.52484 5.37721 4.65014C4.56073 5.77545 4.04187 7.08885 3.86883 8.46835C3.6958 9.84785 3.8742 11.2487 4.38747 12.5408C4.90073 13.8329 5.73222 14.9743 6.80469 15.8591V23C6.8046 23.1279 6.83722 23.2537 6.89946 23.3655C6.96169 23.4772 7.05147 23.5712 7.16026 23.6385C7.26906 23.7057 7.39324 23.7441 7.52102 23.7498C7.6488 23.7555 7.77593 23.7285 7.89031 23.6713L12.0547 21.5938L16.22 23.676C16.3244 23.7259 16.4389 23.7513 16.5547 23.75C16.7536 23.75 16.9444 23.671 17.085 23.5303C17.2257 23.3897 17.3047 23.1989 17.3047 23V15.8591C18.2431 15.0862 18.9987 14.1152 19.5174 13.0158C20.0361 11.9163 20.3049 10.7157 20.3047 9.50002ZM5.30469 9.50002C5.30469 8.16499 5.70057 6.85995 6.44227 5.74992C7.18397 4.63989 8.23817 3.77472 9.47158 3.26383C10.705 2.75294 12.0622 2.61927 13.3715 2.87972C14.6809 3.14017 15.8837 3.78304 16.8277 4.72705C17.7717 5.67105 18.4145 6.87378 18.675 8.18316C18.9354 9.49253 18.8018 10.8497 18.2909 12.0831C17.78 13.3165 16.9148 14.3707 15.8048 15.1124C14.6948 15.8541 13.3897 16.25 12.0547 16.25C10.2651 16.248 8.54935 15.5362 7.28391 14.2708C6.01847 13.0054 5.30667 11.2896 5.30469 9.50002ZM15.8047 21.7869L12.3894 20.0797C12.2852 20.0276 12.1703 20.0004 12.0538 20.0004C11.9372 20.0004 11.8223 20.0276 11.7181 20.0797L8.30469 21.7869V16.8472C9.46566 17.4406 10.7509 17.75 12.0547 17.75C13.3585 17.75 14.6437 17.4406 15.8047 16.8472V21.7869ZM12.0547 14.75C13.093 14.75 14.1081 14.4421 14.9714 13.8652C15.8348 13.2884 16.5077 12.4684 16.9051 11.5091C17.3024 10.5498 17.4064 9.49419 17.2038 8.47579C17.0012 7.45739 16.5012 6.52193 15.767 5.78771C15.0328 5.05348 14.0973 4.55347 13.0789 4.35089C12.0605 4.14832 11.0049 4.25229 10.0456 4.64965C9.08629 5.04701 8.26635 5.71991 7.68947 6.58327C7.1126 7.44663 6.80469 8.46166 6.80469 9.50002C6.80618 10.8919 7.35978 12.2264 8.34402 13.2107C9.32827 14.1949 10.6628 14.7485 12.0547 14.75ZM12.0547 5.75002C12.7964 5.75002 13.5214 5.96995 14.1381 6.38201C14.7548 6.79406 15.2354 7.37973 15.5192 8.06495C15.8031 8.75018 15.8773 9.50418 15.7326 10.2316C15.5879 10.959 15.2308 11.6272 14.7063 12.1517C14.1819 12.6761 13.5137 13.0333 12.7863 13.178C12.0588 13.3227 11.3048 13.2484 10.6196 12.9646C9.9344 12.6807 9.34873 12.2001 8.93668 11.5834C8.52462 10.9667 8.30469 10.2417 8.30469 9.50002C8.30469 8.50545 8.69978 7.55163 9.40304 6.84837C10.1063 6.1451 11.0601 5.75002 12.0547 5.75002Z" fill="white" fill-opacity="0.8"/>
</svg>
