<svg width="27" height="27" viewBox="0 0 27 27" fill="none" xmlns="http://www.w3.org/2000/svg">
<path d="M26.479 24.063L21.3441 18.9281C22.9003 16.8909 23.7538 14.4198 23.7541 11.8123C23.7541 8.66998 22.5303 5.71554 20.308 3.49361C18.0861 1.27169 15.132 0.0478516 11.9893 0.0478516C8.847 0.0478516 5.89255 1.27169 3.67062 3.49361C-0.91625 8.08087 -0.91625 15.5445 3.67062 20.131C5.89255 22.3533 8.847 23.5771 11.9893 23.5771C14.5968 23.5768 17.0679 22.7233 19.1051 21.167L24.24 26.302C24.5489 26.6112 24.9544 26.7658 25.3595 26.7658C25.7646 26.7658 26.1701 26.6112 26.479 26.302C27.0975 25.6839 27.0975 24.6811 26.479 24.063ZM5.90956 17.892C2.55734 14.5398 2.55773 9.08514 5.90956 5.73254C7.53348 4.10901 9.69278 3.21452 11.9893 3.21452C14.2862 3.21452 16.4451 4.10901 18.0691 5.73254C19.693 7.35647 20.5875 9.51577 20.5875 11.8123C20.5875 14.1092 19.693 16.2681 18.0691 17.892C16.4451 19.516 14.2862 20.4105 11.9893 20.4105C9.69278 20.4105 7.53348 19.516 5.90956 17.892Z" fill="#032E15"/>
</svg>
